# xmcd
#
# Track frame offsets:
#	150
#	15471
#	44356
#	89248
#	139311
#	201925
#	235068
#	273415
#
# Disc length: 4181 seconds
#
# Revision: 1
# Processed by: cddbd v1.5.2PL0 Copyright (c) Steve Scherf et al.
# Submitted via: audiograbber 1.83.01
#
DISCID=71105308
DTITLE=The Other Ones - 98-07-19 Fiddler's Green, Edgewood CO
DYEAR=1900
DGENRE=
TTITLE0=Playing In The Band
TTITLE1=Playin' Jam
TTITLE2=All Along The Watchtower
TTITLE3=Scarlet Begonias
TTITLE4=Fire On The Mountain Rap
TTITLE5=Jack-A-Roe
TTITLE6=Minglewood Blues
TTITLE7=Down The Road Again
EXTD=
EXTT0=
EXTT1=
EXTT2=
EXTT3=
EXTT4=
EXTT5=
EXTT6=
EXTT7=
PLAYORDER=
